<?xml version="1.0" standalone="no"?>
<!DOCTYPE svg PUBLIC "-//W3C//DTD SVG 20010904//EN"
 "http://www.w3.org/TR/2001/REC-SVG-20010904/DTD/svg10.dtd">
<svg version="1.0" xmlns="http://www.w3.org/2000/svg"
 width="144.000000pt" height="133.000000pt" viewBox="0 0 144.000000 133.000000"
 preserveAspectRatio="xMidYMid meet">
<g transform="translate(0.000000,133.000000) scale(0.100000,-0.100000)"
fill="#000000" stroke="none">
<path d="M654 1278 c-10 -30 -12 -222 -2 -248 8 -22 38 -26 56 -8 13 13 15
105 2 183 -6 38 -7 24 -5 -57 2 -113 -3 -135 -30 -124 -15 5 -16 22 -13 141 2
74 2 135 1 135 -1 0 -5 -10 -9 -22z"/>
<path d="M773 1290 l-23 -9 0 -371 c0 -412 4 -387 -69 -425 -33 -17 -33 -17
-36 -57 -2 -24 1 -26 30 -23 36 3 65 17 113 53 62 47 62 45 62 442 0 347 -1
361 -20 380 -22 22 -25 23 -57 10z m51 -16 c14 -13 16 -62 16 -377 0 -354 0
-361 -22 -392 -34 -51 -107 -91 -155 -86 -16 1 -17 31 -2 31 5 0 8 4 4 9 -3 5
4 12 15 16 11 3 34 18 50 32 l30 25 0 373 c0 347 1 374 18 378 29 8 30 8 46
-9z"/>
<path d="M811 594 c0 -11 3 -14 6 -6 3 7 2 16 -1 19 -3 4 -6 -2 -5 -13z"/>
<path d="M706 465 c-11 -8 -15 -15 -9 -15 7 0 15 5 18 10 4 6 11 7 17 4 7 -4
8 -2 4 4 -9 14 -7 15 -30 -3z"/>
<path d="M696 1277 c3 -10 9 -15 12 -12 3 3 0 11 -7 18 -10 9 -11 8 -5 -6z"/>
<path d="M681 1184 c0 -11 3 -14 6 -6 3 7 2 16 -1 19 -3 4 -6 -2 -5 -13z"/>
<path d="M205 1168 c-16 -6 -37 -17 -46 -24 -9 -8 -19 -11 -23 -7 -4 5 -6 1
-4 -7 2 -8 -2 -14 -9 -13 -8 2 -10 -4 -6 -14 4 -9 2 -14 -3 -10 -13 7 -13 3
-20 -203 -3 -96 -11 -184 -17 -195 -9 -17 -8 -18 5 -7 13 10 17 44 20 185 3
147 6 178 23 212 27 53 88 85 166 85 62 0 85 -15 74 -50 -5 -17 -15 -20 -60
-20 -82 0 -85 -8 -85 -216 0 -189 -1 -194 -69 -228 l-34 -18 41 -18 c22 -10
45 -27 51 -38 7 -13 11 -87 11 -187 0 -163 0 -166 25 -190 19 -20 33 -25 72
-24 26 1 37 3 23 6 -14 2 -39 6 -56 8 -47 8 -54 35 -54 218 -1 144 -3 165 -19
185 -11 12 -25 22 -31 22 -9 0 -10 3 -1 13 6 8 9 16 6 19 -3 2 6 15 20 28 25
23 25 25 25 201 0 202 -1 200 84 209 45 4 52 8 61 33 8 24 6 31 -10 43 -22 16
-115 18 -160 2z m-30 -528 c-3 -5 -10 -10 -16 -10 -5 0 -9 5 -9 10 0 6 7 10
16 10 8 0 12 -4 9 -10z"/>
<path d="M1047 1173 c18 -2 50 -2 70 0 21 2 7 4 -32 4 -38 0 -55 -2 -38 -4z"/>
<path d="M996 1154 c-8 -21 -7 -56 2 -71 4 -6 7 11 7 38 0 27 -1 49 -1 49 -1
0 -5 -7 -8 -16z"/>
<path d="M1195 1151 c82 -37 95 -76 95 -272 0 -93 4 -158 12 -174 7 -16 30
-34 60 -47 26 -11 48 -24 48 -28 0 -4 -21 -18 -47 -32 -27 -13 -54 -35 -60
-49 -9 -16 -13 -75 -13 -176 0 -169 -4 -190 -29 -171 -9 7 -13 8 -8 3 4 -4 0
-17 -10 -27 -9 -11 -11 -18 -5 -18 25 0 10 -21 -30 -41 -28 -14 -68 -24 -114
-27 -66 -4 -73 -3 -83 17 -18 34 3 65 39 57 37 -7 87 11 100 34 6 10 10 87 10
170 0 174 8 202 71 246 21 14 39 29 39 31 0 2 -5 1 -10 -2 -13 -8 -66 30 -82
58 -8 14 -15 83 -18 185 -4 147 -7 165 -24 178 -22 15 -102 19 -110 5 -3 -5
13 -6 37 -4 35 4 46 1 64 -19 20 -21 22 -34 24 -177 2 -171 11 -201 63 -222
l28 -12 -36 -31 c-19 -17 -40 -44 -46 -59 -5 -16 -10 -97 -10 -181 0 -143 -1
-154 -21 -172 -16 -14 -34 -18 -70 -17 -46 2 -51 0 -60 -25 -7 -18 -7 -34 1
-50 10 -24 14 -24 93 -20 67 4 90 9 123 31 23 14 45 24 48 21 3 -2 4 -1 1 2
-2 4 5 24 15 45 17 33 20 59 20 192 0 141 2 157 21 181 11 14 25 24 30 21 5
-4 9 -3 9 2 0 4 14 16 30 25 17 9 30 22 30 27 0 6 -22 22 -49 36 -27 13 -53
30 -58 37 -4 7 -10 90 -13 183 -4 134 -9 177 -22 204 -10 18 -15 38 -11 44 3
6 1 7 -5 3 -6 -3 -26 3 -44 14 -18 11 -40 20 -48 20 -8 0 3 -9 25 -19z m67
-983 c-7 -7 -12 -8 -12 -2 0 14 12 26 19 19 2 -3 -1 -11 -7 -17z"/>
<path d="M278 1143 c7 -3 16 -2 19 1 4 3 -2 6 -13 5 -11 0 -14 -3 -6 -6z"/>
<path d="M1194 1102 c4 -3 14 -7 22 -8 9 -1 13 0 10 4 -4 3 -14 7 -22 8 -9 1
-13 0 -10 -4z"/>
<path d="M673 1075 c0 -8 4 -15 9 -15 4 0 8 4 8 9 0 6 -4 12 -8 15 -5 3 -9 -1
-9 -9z"/>
<path d="M121 1024 c0 -11 3 -14 6 -6 3 7 2 16 -1 19 -3 4 -6 -2 -5 -13z"/>
<path d="M513 974 c-7 -3 -22 -21 -33 -40 -29 -46 -24 -91 14 -126 35 -33 47
-35 63 -10 9 15 8 19 -3 19 -7 0 -11 -4 -8 -9 3 -4 -2 -8 -11 -8 -25 0 -65 46
-65 76 0 34 31 86 48 79 7 -2 11 -1 7 4 -3 5 1 12 7 14 7 3 9 5 3 5 -5 0 -15
-2 -22 -4z"/>
<path d="M586 971 c49 -8 72 -28 80 -70 9 -42 -1 -73 -31 -104 l-26 -25 1
-351 c0 -285 -2 -351 -13 -351 -35 0 -37 20 -37 325 0 169 -4 294 -9 287 -12
-20 -2 -594 12 -610 5 -7 20 -12 31 -10 21 3 21 7 24 352 2 325 4 351 21 370
51 57 56 123 12 167 -23 23 -38 29 -68 28 l-38 -2 41 -6z"/>
<path d="M543 918 c-17 -21 -21 -42 -11 -60 13 -26 1 -22 -28 10 l-26 27 21
-29 c11 -15 18 -33 14 -39 -4 -6 -1 -7 8 -2 7 5 26 8 42 7 38 -3 57 13 57 49
0 41 -54 66 -77 37z m63 -20 c13 -20 -6 -58 -29 -58 -32 0 -50 32 -31 58 14
20 48 20 60 0z"/>
<path d="M590 800 c-6 -11 -8 -20 -6 -20 3 0 10 9 16 20 6 11 8 20 6 20 -3 0
-10 -9 -16 -20z"/>
<path d="M187 777 c-3 -8 1 -14 8 -14 7 0 11 6 8 14 -3 7 -6 13 -8 13 -2 0 -5
-6 -8 -13z"/>
<path d="M472 739 c-29 -26 -36 -28 -50 -17 -15 11 -15 11 -4 -3 22 -28 -12
-44 -104 -48 -46 -1 -82 -7 -79 -12 3 -4 40 -6 83 -3 59 4 82 10 99 26 18 17
25 19 37 9 11 -9 16 -9 22 0 4 7 3 9 -4 5 -6 -3 -13 -2 -16 3 -3 5 10 23 29
40 20 17 32 31 28 31 -4 0 -23 -14 -41 -31z"/>
<path d="M581 744 c0 -11 3 -14 6 -6 3 7 2 16 -1 19 -3 4 -6 -2 -5 -13z"/>
<path d="M497 682 c-48 -49 -67 -102 -67 -189 0 -23 -4 -32 -12 -27 -7 4 -8 3
-4 -5 4 -6 11 -9 16 -6 14 9 48 -12 61 -37 15 -27 14 -81 -1 -109 -26 -47
-105 -55 -155 -15 -21 17 -28 31 -29 63 -1 43 27 88 47 76 5 -3 7 -2 4 4 -4 6
5 15 18 21 23 11 24 16 22 82 l-2 70 -77 0 c-42 0 -84 3 -94 7 -12 4 -15 3
-10 -5 4 -8 36 -12 86 -12 l78 0 4 -40 c2 -22 1 -40 -3 -40 -3 0 -4 -11 -2
-23 4 -19 -3 -28 -31 -45 -20 -12 -41 -34 -47 -49 -13 -35 -4 -94 17 -110 9
-7 13 -17 8 -24 -4 -7 -3 -10 4 -5 6 3 23 1 39 -5 117 -44 199 113 101 197
-22 19 -23 25 -18 95 6 73 8 77 50 117 24 22 47 39 52 36 4 -3 8 -1 8 5 0 25
-20 16 -63 -27z"/>
<path d="M140 680 c-9 -6 -10 -10 -3 -10 6 0 15 5 18 10 8 12 4 12 -15 0z"/>
<path d="M23 654 l-28 -25 33 22 c17 13 32 24 32 26 0 8 -11 1 -37 -23z"/>
<path d="M946 668 c3 -4 -1 -8 -9 -8 -7 0 -26 -13 -41 -29 -26 -27 -28 -35
-24 -82 4 -39 11 -56 29 -70 55 -41 134 -29 178 27 18 23 22 37 18 68 -6 42
-40 86 -52 67 -3 -7 -1 -10 6 -9 16 4 39 -40 39 -75 0 -20 -10 -39 -31 -58
-42 -39 -117 -42 -154 -4 -34 33 -34 93 -1 132 21 24 31 28 79 28 31 0 54 2
51 4 -8 8 -93 17 -88 9z"/>
<path d="M416 662 c-3 -5 1 -9 9 -9 8 0 12 4 9 9 -3 4 -7 8 -9 8 -2 0 -6 -4
-9 -8z"/>
<path d="M50 639 c0 -5 -5 -7 -12 -3 -7 4 -8 3 -4 -5 6 -9 11 -9 22 0 17 14
18 19 4 19 -5 0 -10 -5 -10 -11z"/>
<path d="M1300 640 c8 -5 20 -10 25 -10 6 0 3 5 -5 10 -8 5 -19 10 -25 10 -5
0 -3 -5 5 -10z"/>
<path d="M1360 630 c-9 -6 -10 -10 -3 -10 6 0 15 5 18 10 8 12 4 12 -15 0z"/>
<path d="M7 605 c3 -8 9 -12 14 -9 5 3 23 -4 39 -16 l30 -21 0 -162 c1 -119 5
-173 16 -202 8 -22 16 -47 18 -55 2 -8 9 -15 17 -16 8 0 27 -6 42 -12 34 -15
126 -16 161 -2 20 7 26 16 25 37 -1 21 -3 23 -6 8 -8 -32 -33 -45 -92 -45 -65
0 -115 22 -145 63 -19 26 -21 45 -24 212 -4 182 -4 184 -28 200 -13 8 -35 20
-49 25 -19 7 -23 6 -18 -5z"/>
<path d="M96 598 c3 -5 10 -6 15 -3 13 9 11 12 -6 12 -8 0 -12 -4 -9 -9z"/>
<path d="M946 594 c-9 -8 -16 -21 -15 -27 0 -7 7 -2 16 11 22 32 61 29 69 -5
10 -36 -20 -59 -50 -39 -18 11 -23 11 -34 -1 -7 -7 -19 -10 -25 -7 -7 4 -8 3
-4 -2 5 -5 16 -9 25 -9 9 0 16 -6 14 -13 -1 -8 2 -11 8 -7 6 3 7 11 4 17 -5 7
-1 9 9 5 10 -4 28 -2 42 3 19 7 25 17 25 38 0 15 -5 33 -12 40 -17 17 -54 15
-72 -4z"/>
<path d="M1135 590 c6 -30 16 -40 12 -12 -2 12 -6 24 -10 28 -3 4 -4 -4 -2
-16z"/>
<path d="M155 560 c-4 -6 -1 -9 7 -8 7 2 12 -3 10 -11 -3 -12 0 -12 12 -1 9 7
16 15 16 18 0 3 -3 2 -7 -1 -3 -4 -12 -2 -19 4 -8 7 -14 7 -19 -1z"/>
<path d="M1336 544 c-5 -14 -4 -15 9 -4 17 14 19 20 6 20 -5 0 -12 -7 -15 -16z"/>
<path d="M573 445 c0 -22 2 -30 4 -17 2 12 2 30 0 40 -3 9 -5 -1 -4 -23z"/>
<path d="M1076 468 c3 -5 10 -6 15 -3 13 9 11 12 -6 12 -8 0 -12 -4 -9 -9z"/>
<path d="M405 430 c3 -5 8 -10 11 -10 2 0 4 5 4 10 0 6 -5 10 -11 10 -5 0 -7
-4 -4 -10z"/>
<path d="M760 393 c-17 -14 -36 -37 -41 -51 -7 -17 -13 -21 -22 -14 -13 10
-46 12 -45 3 0 -3 -1 -8 -2 -11 -1 -3 -4 -71 -5 -151 l-3 -146 31 6 c40 9 49
40 44 156 -3 50 -3 80 0 68 2 -13 9 -23 14 -23 6 0 7 -5 3 -12 -4 -6 -3 -8 3
-5 6 4 16 0 23 -8 7 -8 22 -13 34 -11 11 3 34 5 49 5 33 1 87 50 86 78 0 10
-3 13 -6 5 -2 -6 -9 -10 -14 -7 -5 4 -6 -2 -2 -11 5 -13 3 -15 -8 -9 -8 4 -11
4 -6 0 4 -5 0 -17 -10 -27 -18 -20 -91 -25 -123 -8 -25 13 -42 66 -34 107 7
36 57 83 88 83 26 0 77 -30 71 -41 -4 -5 -1 -8 6 -7 7 2 19 -13 26 -32 l14
-35 -6 34 c-6 42 -21 60 -62 78 -47 19 -67 16 -103 -14z m-64 -72 c5 -6 8 -69
6 -145 -3 -124 -5 -136 -21 -136 -27 0 -29 11 -25 149 5 141 11 160 40 132z"/>
<path d="M681 194 c0 -11 3 -14 6 -6 3 7 2 16 -1 19 -3 4 -6 -2 -5 -13z"/>
<path d="M675 110 c-3 -5 -1 -10 4 -10 6 0 11 5 11 10 0 6 -2 10 -4 10 -3 0
-8 -4 -11 -10z"/>
<path d="M374 389 c-17 -19 -17 -23 -3 -47 19 -35 52 -40 73 -10 21 30 20 55
-3 68 -29 15 -46 12 -67 -11z m64 -6 c15 -29 -4 -62 -36 -63 -7 0 -18 12 -24
26 -11 22 -10 28 7 40 25 19 42 18 53 -3z"/>
<path d="M790 369 c0 -5 5 -7 10 -4 6 3 10 8 10 11 0 2 -4 4 -10 4 -5 0 -10
-5 -10 -11z"/>
<path d="M808 353 c-25 -7 -40 -57 -22 -80 13 -16 13 -16 8 0 -11 32 4 67 30
67 43 0 49 -52 9 -74 -16 -8 -22 -15 -15 -16 47 -1 71 60 36 94 -16 16 -17 17
-46 9z"/>
<path d="M746 327 c3 -10 9 -15 12 -12 3 3 0 11 -7 18 -10 9 -11 8 -5 -6z"/>
<path d="M356 312 c-3 -5 1 -9 9 -9 8 0 12 4 9 9 -3 4 -7 8 -9 8 -2 0 -6 -4
-9 -8z"/>
<path d="M810 306 c0 -2 7 -7 16 -10 8 -3 12 -2 9 4 -6 10 -25 14 -25 6z"/>
<path d="M425 290 c-3 -5 -1 -10 4 -10 6 0 11 5 11 10 0 6 -2 10 -4 10 -3 0
-8 -4 -11 -10z"/>
<path d="M744 279 c0 -10 4 -19 8 -19 4 0 8 6 8 14 0 8 -4 17 -8 20 -4 2 -8
-4 -8 -15z"/>
<path d="M1182 270 c0 -14 2 -19 5 -12 2 6 2 18 0 25 -3 6 -5 1 -5 -13z"/>
<path d="M121 254 c0 -11 3 -14 6 -6 3 7 2 16 -1 19 -3 4 -6 -2 -5 -13z"/>
<path d="M765 249 c-4 -6 -5 -12 -2 -15 2 -3 7 2 10 11 7 17 1 20 -8 4z"/>
<path d="M1151 167 c-13 -21 -12 -21 5 -5 10 10 16 20 13 22 -3 3 -11 -5 -18
-17z"/>
<path d="M1068 143 c7 -3 16 -2 19 1 4 3 -2 6 -13 5 -11 0 -14 -3 -6 -6z"/>
<path d="M1155 140 c-3 -6 1 -7 9 -4 18 7 21 14 7 14 -6 0 -13 -4 -16 -10z"/>
</g>
</svg>
